/* XPM */
static char *result[] = {
/* columns rows colors chars-per-pixel */
"60 60 117 2 ",
"   c #25211E",
".  c #252423",
"X  c #2A2623",
"o  c #2D2925",
"O  c #2F2C29",
"+  c #312C27",
"@  c #322E2A",
"#  c #36312C",
"$  c #3A342E",
"%  c #343332",
"&  c #3A3530",
"*  c #3E3A34",
"=  c #36383A",
"-  c #3B3A3A",
";  c #423D36",
":  c #433F39",
">  c #45413A",
",  c #4A443C",
"<  c #4E483F",
"1  c #3F4043",
"2  c #434343",
"3  c #4F4941",
"4  c #44464A",
"5  c #47494C",
"6  c #524C43",
"7  c #575047",
"8  c #5E5245",
"9  c #5A534A",
"0  c #5F584D",
"q  c #4A4C51",
"w  c #4E5055",
"e  c #5C5750",
"r  c #615446",
"t  c #63574A",
"y  c #65594C",
"u  c #6A5C4D",
"i  c #655D53",
"p  c #6C5E51",
"a  c #705F51",
"s  c #6F604F",
"d  c #70604F",
"f  c #676056",
"g  c #6E6155",
"h  c #6E645A",
"j  c #6F6859",
"k  c #716255",
"l  c #71665B",
"z  c #736B5D",
"x  c #786B5F",
"c  c #5A5E64",
"v  c #5D6066",
"b  c #606165",
"n  c #6D6760",
"m  c #62646A",
"M  c #766D61",
"N  c #796E63",
"B  c #7A6F68",
"V  c #777063",
"C  c #7A7165",
"Z  c #777169",
"A  c #7D746A",
"S  c #7F786E",
"D  c #6B6E74",
"F  c #6D7178",
"G  c #7F7770",
"H  c #7F7871",
"J  c #807667",
"K  c #81766C",
"L  c #83796D",
"P  c #897F6F",
"I  c #817770",
"U  c #847B73",
"Y  c #887E76",
"T  c #877F78",
"R  c #897F78",
"E  c #8A806F",
"W  c #8C8272",
"Q  c #878079",
"!  c #8C837C",
"~  c #918675",
"^  c #938877",
"/  c #91877F",
"(  c #968B79",
")  c #9A8E7C",
"_  c #9D917F",
"`  c #777A82",
"'  c #8E8680",
"]  c #8F8883",
"[  c #918781",
"{  c #938A84",
"}  c #968E89",
"|  c #988F8A",
" . c #9E9282",
".. c #97918B",
"X. c #9A928D",
"o. c #9C9691",
"O. c #9F9894",
"+. c #A29683",
"@. c #A69986",
"#. c #A99C87",
"$. c #A79B88",
"%. c #AA9D89",
"&. c #A19A95",
"*. c #A49E9A",
"=. c #AEA18C",
"-. c #B1A48E",
";. c #A7A09C",
":. c #B4A691",
">. c #B7A993",
",. c #BBAC96",
"<. c #B6AC9C",
"1. c #BEAF98",
"2. c #BFB09A",
"3. c #C0B29B",
"4. c #C3B7A5",
"5. c #C5B8A4",
"6. c #CFCBC7",
/* pixels */
"p p a u u u u u u u K } / C M h h h k g g g g g p p p k ! O.! g p p p p p p p p p p p p p a p p n n a p B ! T n g g y y ",
"p p p y u u u u u p K | ! M h h h h h p g p p p p p p g T O.' l p u t p p p u p p p p p p p p p p p p n B ! R n u p u g ",
"p u p u u u u u y p I X.[ C l l l h p g p p p p p p p k ! &.' l p u p p p p p p p p p p p p p p p n p a B R R a u u y u ",
"p y y u u u u t y l R o.! B h h g g g g p p p p p p g B { &.{ C a p p p p p u p p p y p u p p p p p p h K [ R n u u u u ",
"u u u y t a u k M I | &.' A l l l p g p p p p p p a A [ &.;.&./ N l p p p p u p p p p u u y p p p p p a B R Y n g y u u ",
"N a p p d k N K ! | &.*.o.R B x l h p p p p p p x K [ &.*.&.*.&.! B p y u p u p p y u y u p p y p p p p B R U a p u u u ",
"6.K N B K Y / { X.o.o.*.*.o.! I N l p p p p g M I } &.o.| | &.*.&.[ B a p u u u p y u u u p p p p p p p B [ U a u u u p ",
"[ Y R R { { { ~ R R [ &.*.o.+.{ U N a p g x A ! | X.{ U K Y } &.*.&.{ B l u y y p u u u p u y p p p p p K { Y l g k z C ",
"} } [ ! Q L A A C C Q X.X.U R { { I B n G I ] o.| Y Z M B B G { o.&.&.] G M p p u u u y u u y y t p p h G { T B B A U ! ",
"! Y K A V z z V z M S { { N x L ' | R ` ' X.X.] K B M M n B n B I [ | o.] I B l u u u u t t u y p p B G T ] Q U T ] ] { ",
"C z M N M V V V z V C / { N k k B ' o.o.o.] I B M M M M M B N l n B A ' | } T B l u y u u u p j M G U R } o.} { { ! G A ",
"V V V z z M z z V z V Q | C k k n I o.o.' G x n M M M h l M n h N n n B U { ..] J z s u k x C S U ] ..o.o.} ! Y K C M M ",
"z V M z V V V z z V z Y } J k a a I &.} B n B B B a n M M n M a B l h M M A ' X.} L C S I Q ! { | o.&.o./ Y S M M z M M ",
"M M V z z z z V z V z S { L k u n R o.T x N M h n n M M n M n B n M M h l z C Q X.X.{ { } { ] Q I T } } L C M z z z z j ",
"V M M M z z V V M V V S [ U k u M ' } B M n n M n N N a n B B n M h M h M h l B ! o.&.o.! L V z n B [ Q A z z z z z j j ",
"V z z z z z z V z z z A Q ! x k B } ! B l M M a M n n n i i B a M h h h M h j h Y } O.o.Q M M z x A { Q V z z z z z z j ",
"V V j V z V j V M z z V Q ! M g T | I B M n M i n p l i & % f g h f h n h h h n I U { o.' C z z j H ] / V V z z z z z z ",
"j j V z z z z z z z z V Y ' B M ' | A h i p i ; : 6 0 i i i h i 6 > i i h n l n A B I ..o.I M j M E / ! V z z z z z z z ",
"z j V z z z z V V V V z I ] I A } { M i & : 0 j K W ^  .%.-.=.=.@.! h 6 i i M B n h M ' o.T M l M S ^ W V z z z z z z z ",
"j V j z z V z V z z V M A ] Y Y ..U i : 7 C ^ (  .$.:.,.1.1.:.:.>.>.<.X.n : i M l h h Z { ' S M M C ! E V z j V j z z z ",
"z z V z z z z z V z V V L ' { } } n : p P ^ _ +.=.,.2.2.2.1.:.^ E ^ -.3.<.Z > f h h l l Y } U M V E ! E V j j z j z j j ",
"j V V j z z z V z z V z I [ o.&.! * 0 P W ) %.>.1.2.1.>.1.,._ 9 7 P $.1.5.<.n i p h l n B { ' A V Q ! S j j j j j z V j ",
"j V z z z j j z V z z z K [ &.o.Z > J / ^ #.>.1.1.1.,.>.1.,.+.z z ~ +.,.3.5.O.6 i n a l a U } T A ! ! S z j j j j z j z ",
"V z z z z z z j z z z V U { &.{ : i ~ W ) >.2.1.1.2.2.,.:.=. .W P P ) =.,.4.<.f i a n p l B { { Q ] ! C j z j j j j j j ",
"V j j z x z V j l M N I [ X.&.{ * V ^ J _ >.,.:.,.1.1.>.#.+.%.-.-.-.>.,.1.3.2.A & i p l g M ! | Q ] Q V z j j z z j z z ",
"V j z j j z z z M J I [ o.X./ I 3 E ~ z ~ =.=._ -.1.3.1.1.,.1.1.1.1.1.3.,.3.1.L $ i g g p B [ } o.o.Q A V j j j z j j l ",
"j z j j j j z J K R [ | } R J x 9 W ~ j j )  .#.>.1.1.3.3.3.1.3.1.1.>.>.,.,.-.J & t p p n Y } { o.;...Q H S V V l l l n ",
"j z V z V d V E R { { R L N k a 9 ~ ( V 6 j _ :.,.-.-.-.>.,.>.-.>.=.=.-.-.+.^ j * i l k B / [ { O.&.O.O.../ Q Q I K B D ",
"H S S Z J E E W +.{ Y K x x k p 7 W ~ E t 9 ( =.-.) P P ^ +._ ) ) _ %.#.W j 7 , t a l B R ' [ | { ! / o...] / ] ] ' T I ",
"..( ! W E ^ ! / &.R J a a k k u , L W E 9 f ( =.#.l ; ; < l ~ #.>.>.-.P 3 @ o o i n B T ' { { Y J C L ! ! S V Q ..&.o.o.",
"&.O.&.O.o.o./ ! } Y N k k a d y * C ( J 8 J ) #.) < + # + @ < E >.1.^ < @ @ @ o M T T ! } ~ J k k k j C E E C ! o.;.&.&.",
"! Q ! / ^ X.{ ! } U x k k k d y $ f ~ J g E ) _ ) , + # # + + 0 %.>.l @ # # o % U ] { X./ J k d d u s j C Q ! X.o.X.R U ",
"V V V V A R | { } U x p a k a a r < K P l L ) #.+.7 o # $ #   8 =._ j + o o   o Q X.o.O.{ V s u u u d d d P o.&.{ K N l ",
"V j z j n B T o.O.' B p a k a a r $ r P P L ( -.:.A $ o   o > A V 7 7 < ; $ , ; C W / o.O.L d u u u u u a J | | I l a M ",
"M j z z B l M ' o...H n a a a a a 8 ; 7 J E ) -.,.#.z , > 9 E +.9 # > E ) ^ E , j Z S / $.{ V d u u y a a J [ | K n M M ",
"z z z z l n n A ] o.} G M a a p a u 8 $ > y J #.>.,.-._ +.=.,.:.V < j =.,.=.V > j C C S ] O./ l y u u u a J { [ B M n p ",
"j j M M h M n B I { | / B a a a a a u r r & > t L _ :.,.,.1.1.1.-.=.-.,.,.( < f M V M C I X.X.Y l u y u p N { ' n n a n ",
"h z n M n g h h N U [ | Y x a a a a a a p t i % $ g =.>.,.1.,.1.,.:.,.>.-.J ; j M M N V A Q } ..J k u u p B { ] B l n n ",
"h h h j n l B B x x K { } I x p a p a a a a a % o ; S E =.=._ -.@.W =.W C s f z V V C V M S Q } [ A k a k N { ' M n a a ",
"M h h n l h g h l l M I { { K l a a p a a a i 1 w - * * e f 7 V s > 7 ; * * j z M M z z N C U W { R N k a J { ' B a n n ",
"h l l j g l j z l l l N R } { K x k k d a a ; 5 c 4 . . X X   X o o   o 0 h j V M N M V V N C A Y ! Y C z K } { A l h h ",
"h g l l h g l k l a l N I R | [ L K N J J l @ = q = O % + + + X # %   O f z M z V M V V V V V V V U ] U K U X.{ A n h h ",
"h l l p l l l j g l h M z N ' X.{ Q U Y I B % & = . . . + + @ + o # o % % j V M V V z V V C V x V A ! ] U Y X.{ A l h l ",
"l g l g l p g g g l l M k l I o.&.X.{ [ U : 3 3 , @ . . . X X X . .   # # f V z z z z z z V V V M V A ! [ [ o.} A g g g ",
"h p j p g g j z l k l l k k U &.X.W K C x , M W K 7 X . . .       . X # # h z z V x z z z V V V V V V A { o.o.{ B g g p ",
"l l g g g g k k l l l j l l ! o./ B l k p t t K N 6 O o @ + @ % : 5 : > * j z M V V V z V V z N M V M V H | o.] A g g h ",
"l k g l g k k g g l l k k l [ X.I l p p p p t ; * = 4 c b m m D F ` v j j z z V z z N V z V V V M M M M A U X.} Y M h g ",
"g g p g g g s g k k g g k N } } A l k p y p y # + % 1 5 c c w w q 2 : j z V z z z z z V V V N V V M V M M A ! X.} U n p ",
"l g p k g p g g k g g p k K | ! C k k p p u p y a o . X X O .   .   o f z V V z V z z M V V V z V V C V V V U | o.{ I M ",
"I J M l l p p k l g p p x Y o.Q N g p p p y u u n & o o X % O X o X # f z z z z V z z V z V V x M V V z V C L W o.o.{ ! ",
"' ! ! ! U A N C B p p p x ! X.T x p p a u u u u M I R M i n I N j f f j z z z V M M M z z V V z M z V V C L Y ! o.&.o.| ",
"o.o.} { { { [ { U l p p N } } U x y u y u u u a M ! | U a M Y / S M V z z z V z z V M M V z V V N V V A K Y Q | o.} } X.",
"R ! { | | } { } } Y M l U | ' I k k g g k k N C U [ o.} N p N [ ! S B M V V z z M M M M M N B N C C S S Y Q { { Q K A A ",
"U N K I Y ~ { { { { [ ! { X.! I C N S J Y Y / { X.X.X.X.Y l g I } Y S A C V V C C C C C N C C B A A K Y Y { } Y M l l l ",
"6.K k l l B K R [ } } { ..o.! ' ! / [ { { [ / ! ! R R [ R N k M ! } T A K J S J K L A S H U L L U L Y ! { { [ S l h g g ",
"K k l g a l a N I T ] o.O.o.{ ! ! ! Y Y I A C N B z B I / U N A ! &.o.{ ! Q Y Q Q Q Q Q { ..| } { } X.o.! R Q N j g l g ",
"k l a g g g p p l N I } o.{ K B N B z M n l l l h h n A { { Q ! } &.o.{ ! U Y I U U L U U R ! { } } { X.} [ ! M l l p l ",
"p k p g g g p p p a N ! o.U N M l z M j h M n a h p a B [ O.o.X.[ ! R A l x x k k l k l l l M M A A I Y [ | / M a p g p ",
"p g p p p p p g p u z ! } A z z h M g p l g h h g l a B { &.{ R B M l k g j g g g g a p p l g l g k z z U { R M g g g g ",
"g p p p p p p p p u x / { A M x h h h h p h h p p p k B { o.Q M k g g g g p p g g k g g p g h g g g p x A } ! M g g g p "
};
