/* XPM */
static char *result[] = {
/* columns rows colors chars-per-pixel */
"60 60 232 2 ",
"   c #67594B",
".  c #6A5C4D",
"X  c #6C5E51",
"o  c #74634F",
"O  c #7B694F",
"+  c #6E6155",
"@  c #6E645B",
"#  c #6F6859",
"$  c #716354",
"%  c #7B6C55",
"&  c #71665B",
"*  c #736B5D",
"=  c #7B6E5B",
"-  c #7E7357",
";  c #7E725C",
":  c #766E61",
">  c #796E63",
",  c #796F68",
"<  c #777062",
"1  c #7B7164",
"2  c #7D746A",
"3  c #87744D",
"4  c #867453",
"5  c #8A7454",
"6  c #8C7B56",
"7  c #83755C",
"8  c #8A775B",
"9  c #84785D",
"0  c #8B7B5B",
"q  c #837662",
"w  c #857964",
"e  c #8B7C63",
"r  c #81766D",
"t  c #82796E",
"y  c #8C7E69",
"u  c #937D62",
"i  c #847B73",
"p  c #867C76",
"a  c #887E75",
"s  c #877F79",
"d  c #E8B60D",
"f  c #ECBD0D",
"g  c #F3BF0F",
"h  c #E5A516",
"j  c #ECA616",
"k  c #E6AB15",
"l  c #EBAA15",
"z  c #E6A41C",
"x  c #ECA51C",
"c  c #E6A91B",
"v  c #EBAA1C",
"b  c #F1A517",
"n  c #F0AB16",
"m  c #F2A41C",
"M  c #F2AA1A",
"N  c #F8AF19",
"B  c #EEB215",
"V  c #EDBB15",
"C  c #E5B71D",
"Z  c #EDB31C",
"A  c #EDBC1C",
"S  c #F3B416",
"D  c #F3BB15",
"F  c #F8B916",
"G  c #F3B41B",
"H  c #F9B41B",
"J  c #F3BB1C",
"K  c #F9B91D",
"L  c #D59F37",
"P  c #D19B3B",
"I  c #CDAB2E",
"U  c #DCA82A",
"Y  c #DAB32E",
"T  c #CFAC36",
"R  c #CDA13D",
"E  c #CCAC3C",
"W  c #DEA635",
"Q  c #DEA63C",
"!  c #D8A939",
"~  c #DDAA3A",
"^  c #CBB13E",
"/  c #DAB435",
"(  c #D5B33B",
")  c #D8B639",
"_  c #DBB43B",
"`  c #E6A523",
"'  c #EBA523",
"]  c #E7A822",
"[  c #EBA921",
"{  c #E4A52C",
"}  c #EAA52B",
"|  c #E4A92B",
" . c #EAA82A",
".. c #F1A421",
"X. c #F0A922",
"o. c #F1A42A",
"O. c #EEB422",
"+. c #E6BC25",
"@. c #ECBC23",
"#. c #E0B62F",
"$. c #EBB72A",
"%. c #E5BC2B",
"&. c #EBBC2A",
"*. c #F2B323",
"=. c #F3BB22",
"-. c #F8B921",
";. c #F2BA29",
":. c #E4A533",
">. c #E9A634",
",. c #E5AA35",
"<. c #E3A63A",
"1. c #E3AA3C",
"2. c #EAAD3D",
"3. c #E4BC34",
"4. c #EBBD32",
"5. c #E4BB3B",
"6. c #E9BE3C",
"7. c #EBC009",
"8. c #F0C00F",
"9. c #EDC115",
"0. c #ECC01A",
"q. c #F1C016",
"w. c #F1C01E",
"e. c #DFC02F",
"r. c #DEC13C",
"t. c #E5C024",
"y. c #EAC024",
"u. c #E4C12D",
"i. c #F3C022",
"p. c #F2C12D",
"a. c #E7C237",
"s. c #F4C539",
"d. c #8D805C",
"f. c #90815B",
"g. c #BF9C55",
"h. c #BFA057",
"j. c #8D8167",
"k. c #968569",
"l. c #9B8B6A",
"z. c #898077",
"x. c #8C837C",
"c. c #918574",
"v. c #93877C",
"b. c #978C79",
"n. c #A39475",
"m. c #AB9A76",
"M. c #A3947A",
"N. c #BEA062",
"B. c #C89C47",
"V. c #D29D46",
"C. c #C79C58",
"Z. c #CBAC42",
"A. c #CEA14B",
"S. c #C8A748",
"D. c #D5A546",
"F. c #DBA645",
"G. c #DCAA44",
"H. c #D6A34A",
"J. c #D5A94E",
"K. c #DBAB4C",
"L. c #CEB545",
"P. c #D6B444",
"I. c #D9B345",
"U. c #DBBB47",
"Y. c #D2B24D",
"T. c #D9B44B",
"R. c #CCA556",
"E. c #CFAC54",
"W. c #CBA75B",
"Q. c #D4A353",
"!. c #D3AA54",
"~. c #DBAD55",
"^. c #D6AA5A",
"/. c #D9AA58",
"(. c #CDB35C",
"). c #D5B957",
"_. c #DABA54",
"`. c #D4B45B",
"'. c #DCBD5D",
"]. c #E6A744",
"[. c #E3AB43",
"{. c #E3AC4A",
"}. c #E3BE43",
"|. c #E7B349",
" X c #E3B456",
".X c #CAA865",
"XX c #D3AC64",
"oX c #D7AD65",
"OX c #CDB365",
"+X c #D6B768",
"@X c #DDB46C",
"#X c #DCBB6B",
"$X c #C0A776",
"%X c #CAAD74",
"&X c #CAB576",
"*X c #D7B877",
"=X c #E9B863",
"-X c #DDC158",
";X c #EAC445",
":X c #E3C34B",
">X c #E8C44A",
",X c #ECCC4D",
"<X c #FBCD46",
"1X c #E8C756",
"2X c #FCD250",
"3X c #DDC369",
"4X c #DAC373",
"5X c #DDC67D",
"6X c #E6C763",
"7X c #FCD965",
"8X c #E9CD73",
"9X c #ECD97C",
"0X c #FCDF73",
"qX c #FCE66A",
"wX c #FCE878",
"eX c #8E8681",
"rX c #8F8984",
"tX c #968B80",
"yX c #938B85",
"uX c #968E89",
"iX c #9B9286",
"pX c #9A928D",
"aX c #9C9691",
"sX c #9F9894",
"dX c #A69A88",
"fX c #A19A96",
"gX c #A49E99",
"hX c #ADA38B",
"jX c #B3A588",
"kX c #ADA295",
"lX c #D5BB84",
"zX c #CFCBC7",
/* pixels */
"X X X . . X . . . X r uXv.1 : @ @ @ + + + % % d.9XwX0X7X7X7X7XqXwX9Xd.% % X X X X X X X X @ X X @ @ @ X , eX2 : + +     ",
"X X X   . . . .     2 pXeX: @ @ @ @ & % 7 OX`.).1X1X1X,X,X;X,X,X,X1X-X&X&X9 O + X X X + X X X X @ . X @ , x.i : . X . + ",
"X X . . . .       X r pXeX1 @ @ & - 4 (.'.1X:Xa.a.3.5.3.3.3.4.%.3.r.U.1X6X3XOX4 % + . X X X X X X @ X X , s i @   .   . ",
"X       . .     X & s aXx.> & = 5 E.I._ 3.3.&.@.@.@.&.&.&.y.&.t.t.t.%.%.a.a.:X_.OX4 $ X X X X X . X X @ , eXp : + .     ",
". . . . . . . $ > i uXfXx.r 9 S.( 6.4.;.O.A J D D J J @.=.=.@.A 0.0.A A V y.;.a.}.~.(.4 o X X X X X X X , v.i & + . . . ",
"q X . X o $ > r z.pXfXgXpXl.L.a.&.$.@.=.-.K F F F J G G G J J V J J A J J J J =.&.a.:XT.^.4 X . X X X X , x.r + . . . . ",
"zXr : , r p v.yXpXpXaXhXjXU.&.@.@.=.=.=.K H H H S G G N G M G G G Z G J J J J F V @.&.3.:X`.4 X X X X X > eXi & . . . + ",
"yXi s x.yXyXyXx.z.z.n.P.3.A V V V =.;.-.N N M M l M M j j j j j h v v Z G G J J V V A ;.4.;X`.4 X X X X r yXi & + # # , ",
"yXyXyXx.z.2 2 2 < d.I C A Z J J V A A G v j j v j v [ [ x j x j m m m ' ..x v =.J J J @.@.3.}.`.4 * X & 2 rXx.2 , 2 2 rX",
"x.p r 2 : : < < 6 I C A J K =.J Z B v v v c x [ ' ' ' | [ ] x x m ........' z c Z A J =.@.+.%.:X+X*Xr r s uXx.2 x.rXrXrX",
"1 > > : * : = 6 T +.0.w.=.;.=.*.v v c h k v c ]  . .:.{ { ` ' ' ..m m m m x x h k k O.@.@.@.&.5.:X#Xb.c.rXpXuXrXrXx.2 2 ",
": : : * : < 6 E +.@.@.=.@.O.O.v v v x v c c c ] { | ,.<.P ! ,.} ..m m m m j x k k k v O.;.;.$.&._ :X4XhXsXuXrXz.2 , < < ",
": : * * < 9 Z.&.A G -.;.G v v v X.......z h x ` ` :.|.^.0 5 F.{ z j j M b l k k c c h z X.;.;.@.t.a.:X4XiXc.2 < < : < : ",
": : : < < 6 / @.A =.;.;.O.c x M m m m ....x x ' ` ,.K.0 : 7 J.1.| v x j l h k c c C h z [ X.;.J 0.t.e.1X4Xj.* * # : * # ",
": : : * 6 E $.@.@.=.*.O.[ x m ..m m m ......' ` { ~ !.= @ q W.G.U U c c j v v h c ' ` z z m *.A 9.9.0.r.-Xd.# * : # # # ",
"< : : 9 E / &.=.=.J Z v v ' X.m m m X...m ' } :.Q ~.C.> & > N.!.D.( | c v [ ..x h x ..m x x z A D 9.0.t.:X4X1 < # : * # ",
"< * - E.5.$.*.;.=.Z v j ......m m m X.' z { :.V.oX%Xr : @ @ w %XoXJ.! | ` x m M b b M x c c h [ V 8.8.0.u.-Xd.* * * * # ",
"* * d.U.3.@.=.-.*.C k x ....m m m m [ ` { 2.Q.7 7 7 : @ @ : & > > 8 R.K.<.` X.m m M j x ] ] h z B F 8.9.u.:X*Xj.* * * * ",
"* ; (.) $.=.K -.G v k c m m m m m x ` :. XXXe : & X @ : @ @ & : : & 8 .XQ.<.o.X.M b M ' ' ` ` h k F F J u.a.8XlX1 * : * ",
"* d._.4.@.K K H S v c h j z x m m ' | G.+Xy & : : & @ : @ @ @ @ & X & > 6 H.>.' b b M [ ' ` ` h k n K =.$.5.6X4X9 * # : ",
"; (.U.+.A J K N l l c c c h j x ..} 2.Q.e * * & : & % % = % = & : + @ @ = W.].{ m M m ..o.' ' x j l S -.$.3.:X3Xj.# # # ",
"f.-X5.u.J F H M j v c c ` ' [ x ' :.G.8 * @ @ * = 7 B.R P P B.5 = & @ : & 7 C.Q } ' m ......x x h h X.*.$.&.s.6X5Xj.* # ",
"6X>X3.;.J H H M x c ] ] ' ' ' '  .~ !.7 @ @ * 1 .XH.~ | ` ' <.Q.C.w & & & = 4 V.>.........m x z z z [ *.@.y.a.,X8Xj.# * ",
"2Xs.$.=.J H N l c h ]  .} ' ....} ~ !.q : @ @ w R.Q { x M m ..:.K.XX% & & & % H.>.' ..m m x x x z z v Z A @.+.a.3X- # # ",
"s.p.@.=.J J B l x ` ' o.o.} ..' { ~ ~.u , @ q $X^.L o...m m m ` W ~.8 & * & 5 F.{ x M j j j j x x z ` Z @.@.@.3.-X- # # ",
"p.@.A w.J S B h z z } o.o.....' | W ~.a r r & q .X~.].:.{ { ` U W {.^.0 7 5 J.]. .' x v h l j z x z z Z =.=.@.3.T.- # * ",
"i.0.A i.J D k k j m ............{ :.~.M.x.p r q q N./.Q.K.T.G.W W 1.{.Q.J.G.<. .o.[ x v j l l M ' ' z [ =.i.y.%.L.7 * @ ",
"w.w.J i.J V l k b m m m ..m ..m ` | |.@XtXp p r r 7 q q %X.XW.B.G.Q :.<.:.} ' ' ..x x v m l j M ' ' z x J J w.y.P.w , : ",
"V A V J G Z k k j b m m m b x v ` | ,.T.u tXuXa i 2 , , 1 q ; 0 @X/.H.<.:.' m b z x ..M m x j x ' ' ` v Z J V @.U.b.i i ",
"V A A D S S l c m m b m m M x v ] c ] { Q.u a pXeXp i i t t t p y w u W.V.:...M m m X.x x x x x ' ' z x G J V A ) hXsXaX",
"V V D D H M j [ ..m m m m b ' [ ] v h ` ].Q.u c.pXaXaXuXyXx.z.v.s p p c.k.V.} o.m x ' x x x j x m ' z c S J q.V _ hXfXgX",
"V A J D F G v ' ..m m b m x [ [ ` ] v ' >.].Q.@XlXhXdXdXdXfXaXpXuXuXtXyXyXM.H.} ` x v [ j x j M ' ' ' v Z J q.@.P.iXeX2 ",
"A J J D D G ' ' ....x m x x x ` ` | ` { >.<.<.].G.G.T.'.+Xn.b.v.i i z.z.x.yXn.Q { ` [ v c j x m ' ' z x G J q.A ) j.: # ",
"A J J D J Z ' ..X.m M M j j j ' ' :.~ [.|.{.<.:.` | | :.~ H.Q..Xe < 1 2 1 2 y !.,.] ` x j v x x m m z x =.J V @.P.- @ : ",
"@.@.0.V J G m m m m M m b l x ' } |.Q.Q.~.~.|.} [ v v v ` :.Q {.C.0 < * * * 0 +X~ c c j m m m M x x h c -.J A &.P.= # : ",
"p.i.@.A A *.v M m x M j b h j x >.~.5 3 O 5 /.<.' M X.v ' ' } :.].C.q * : : w #X~ c j j m X...' x z h Z =.=.@.3.Y.; * @ ",
"s.p.@.A A A B c x j x x j M b x >.oX4 . X o 5 V.:.' ....m ' [  .>.V.9 : : : w @X:.x m ..........x h h Z J =.$._ 0 * @ @ ",
"<Xs.+.@.A A C v x ` ' x b M m x >./.5 . o X 8 oX{.:.{ o...x ] ] 1.V.7 * : : w @X<.' X.m ........j h h G G @.%._ 7 @ @ @ ",
",X;X%.y.A A A l v ` ' ....m m ' >.~.C.4 X o > b.oX{.<.<.{ { U W D.h.; * * * q oX<.' m ....o.....j j v V @.@.3.( 7 @ @ @ ",
"f.I.6.y.A V J h v ' ' o...m ....} ].oX5 X o q tXdX@XQ.V.P R A.B.0 1 < : : < q K.>.' x x ....' ..c k B J w.&.5.Y.w @ @ @ ",
"7 ).:X%.A D D B v [ ' ..M m m ..} :.{.oX8 & r tXpXc.w 7 ; 7 7 ; > : * : > > 6 P } ' v v v ] ' ' j k J A A +.I.n.2 @ @ @ ",
"= .X1X4.A D D S v [ ] ' x m m ..' ' <. X*Xk.p uXaXx.2 < * < < > : : * * = 5 P ` ` v v c c ` ' ' j B D J A Y m.yX2 : @ @ ",
"& 8 E.3.A D g S G  .] ] x x m ' ....{ ].=X@XdXdXfXyXr * * < * : : * : : 6 P { x x X.v h c ] ` h c S D V w./ dXuX2 @ @ @ ",
"@ + 6 ( A 9.D H *.*.' ] ] x j x m ..` { ]. X@XdXkXdXi < * * * : < * 7 6 P ` ' M M x x x x z z c Z F D D @.( iXyX2 + + X ",
"@ + % Z.+.A D F -.*.[ [ c j v x M m m ' } <.[.^.@XlXdX2 : * : ; ; 6 V.L ' x x m x x x ..x x z c A J J A #.m.sXyX, + + X ",
"& $ # 4 / +.y.J G J Z l c c v j x x x x x ` { Q ~.^.%Xc.< * 9 h.A.D.{ z x m ..X.' ' ' o.' x v O.J J J %.S.iXaXrX, + @ @ ",
"# $ + % g./ y.=.J J S b l j l b M x x x v x ` ` :.]..XiXi q N.H.Q { ' m m ' ..' } } ' ' ' ' *.G V V u.E 0 z.uXuXi : + + ",
"+ + + + 4 Y.3.@.J J S S n l b l l x x [ [ v x ' ` >.~.n.v.k.^.].:.` ' m m x ' '  .[ ` z j G =.=.V w./ 6 ; r eXpXyXi : + ",
"# $ X + $ 3 E Y w.V J J H N b l j j ' ' [ [ ' X.` } ]. Xm.6X|.,.{ { ] x ' x ' ' v v k k B V J i.i.%.^ 9 < < i uXaXrXr : ",
"r 2 > & $ $ 3 E Y A =.K K K M M j x ..[  .[ [ [ ] ' o.2.G.|.2.>.{ ' [ v [ [ ' x c c k d V D D @.4.( d.< < 1 t x.aXsXyXeX",
"eXx.x.x.i 1 : d.E %.i.y.K -.H G v x ' ' ' [ ' x [ ' ' ' } { { } ' [ v c v v c j v Z B 9.V q.w.%./ S.; < 1 t i v.aXfXaXuX",
"aXpXuXyXtXyXyXyXl.^ u.0.J J K G G v [ ' x j c [ ] ' ' ` ` ' ' ' v c h j l l l j Z Z J V 9.0.@.E 6 ; * 2 t i x.uXaXuXuXaX",
"a s yXpXuXuXyXuXiXl.^ e.t.A A J -.-.G l j l h j x v [ c ] ] [ c j l j j l n S S *.@.J A @.+.T 6 1 2 2 i i z.rXyXx.2 2 2 ",
"i > r t a v.yXrXrXyXn.L.u.0.@.0.J J K H H S S l l h c c c c c v v l b N S S S J J J =.@.%.T f.r 2 2 2 i x.yXuXi : @ & & ",
"zXr $ & & > r s rXuXuXn.L.e.t.+.A J D D F D D S S S C v A Z Z v G G -.H H K K K J @.&.4.( k.t r i i i eXtXuXyX2 * + + + ",
"r $ & $ + & $ > 2 z.rXpXhX-Xr.3.%.i.D D g H J F J J J =.=.J =.J -.-.-.K G F J =.$.%.) ).n.pXpXyXyXuXpXaXx.i x.< @ @ + + ",
"+ $ + + + X X + $ > t uXfXM.(.T.5.u.@.w.;.-.;.=.K -.J =.=.J =.;.;.=.i.w.q.q.A @./ Z.k.k.a a x.tXuXyXyXpXuXtXs : & + & X ",
"+ + + + + + X X X + : v.pXp q u (.:Xa.4.$.$.;.-.-.J J J V V A A @.=.@.V C +.u.E 3 - $ & & & * > 1 t i z.tXuXx.> X + + + ",
"X + X X X X X + X . & s uXr : : w +X#X>Xs.3.;.=.J D 8.f 7.f V V V @.@.@.Y / ^ 4 $ @ + X + + + + + $ & * i yXs : + + + + ",
"X X X X X X X X X . q eXyX, : & @ ; e 9X7X<Xp.;.S f f f 7.7.7.f V =.;.5.3 O O $ + + + + + + @ + @ + $ & r uXx.* + + + X "
};
