/* XPM */
static char *result[] = {
/* columns rows colors chars-per-pixel */
"60 60 222 2 ",
"   c #3B1727",
".  c #3F2729",
"X  c #470B0B",
"o  c #57120B",
"O  c #441818",
"+  c #521C16",
"@  c #73140A",
"#  c #79190A",
"$  c #641911",
"%  c #6B1F17",
"&  c #5A221D",
"*  c #732216",
"=  c #7C271A",
"-  c #442928",
";  c #532827",
":  c #523032",
">  c #583D36",
",  c #642628",
"<  c #762C23",
"1  c #7B3127",
"2  c #632D33",
"3  c #693533",
"4  c #763938",
"5  c #774438",
"6  c #623E40",
"7  c #5B4047",
"8  c #654944",
"9  c #6C4D4B",
"0  c #6A544C",
"q  c #67594B",
"w  c #6A5C4D",
"e  c #795649",
"r  c #725D4C",
"t  c #6C5E51",
"y  c #6A5956",
"u  c #705E51",
"i  c #7B5D52",
"p  c #6F604F",
"a  c #76614E",
"s  c #6E6255",
"d  c #6E645A",
"f  c #6F6859",
"g  c #716255",
"h  c #7A6257",
"j  c #71665B",
"k  c #736B5D",
"l  c #7A6B5F",
"z  c #736666",
"x  c #756D61",
"c  c #7A6E63",
"v  c #777063",
"b  c #7A7165",
"n  c #7D746A",
"m  c #7F786E",
"M  c #7F7771",
"N  c #8B210A",
"B  c #96210C",
"V  c #842718",
"C  c #972D15",
"Z  c #993319",
"A  c #AA300B",
"S  c #B5370F",
"D  c #AA3B1C",
"F  c #B23916",
"G  c #87342A",
"H  c #913A30",
"J  c #A73E24",
"K  c #B6441D",
"L  c #8A4839",
"P  c #AA4227",
"I  c #BE4A2A",
"U  c #AB4D3C",
"Y  c #A05B3A",
"T  c #B4523A",
"R  c #A7603F",
"E  c #C6481B",
"W  c #D94A18",
"Q  c #D8511D",
"!  c #ED4F0F",
"~  c #FF4D00",
"^  c #FF5401",
"/  c #FF5A01",
"(  c #F5540D",
")  c #FC560B",
"_  c #FD5A0C",
"`  c #E34F1A",
"'  c #EA5718",
"]  c #F65615",
"[  c #F45916",
"{  c #FC5B14",
"}  c #F45B1C",
"|  c #F95C1B",
" . c #DB6819",
".. c #FF6502",
"X. c #FF6C03",
"o. c #FF650C",
"O. c #F36B0A",
"+. c #FF6A0A",
"@. c #FF7503",
"#. c #FF7A03",
"$. c #FF740C",
"%. c #FF7A0B",
"&. c #EA621B",
"*. c #FD6613",
"=. c #FF6E11",
"-. c #ED7B14",
";. c #FF7513",
":. c #FF7A13",
">. c #FF7618",
",. c #C54B26",
"<. c #D75527",
"1. c #CA5637",
"2. c #D65B36",
"3. c #E55A26",
"4. c #EC5C24",
"5. c #E55B2C",
"6. c #EC5E2C",
"7. c #F45D22",
"8. c #F45E29",
"9. c #D96723",
"0. c #DE7726",
"q. c #CF6535",
"w. c #DA6434",
"e. c #E4662C",
"r. c #F66124",
"t. c #EC6334",
"y. c #E46538",
"u. c #F46434",
"i. c #865645",
"p. c #88514F",
"a. c #935A48",
"s. c #9C5C5A",
"d. c #A25A47",
"f. c #B45648",
"g. c #856349",
"h. c #9B694B",
"j. c #866559",
"k. c #8C6C5A",
"l. c #996C55",
"z. c #84725E",
"x. c #A76148",
"c. c #B17054",
"v. c #856863",
"b. c #897366",
"n. c #81766D",
"m. c #82786F",
"M. c #8A7A6C",
"N. c #977868",
"B. c #827771",
"V. c #847B73",
"C. c #897E75",
"Z. c #887778",
"A. c #877F78",
"S. c #897F78",
"D. c #987B73",
"F. c #BB7964",
"G. c #CE6A4A",
"H. c #C5665A",
"J. c #E26342",
"K. c #FF8403",
"L. c #FF8B06",
"P. c #FF840C",
"I. c #FF8D0D",
"U. c #FF9309",
"Y. c #FF9E0F",
"T. c #FE8213",
"R. c #FF8D13",
"E. c #FF8419",
"W. c #FF8C1B",
"Q. c #FF9013",
"!. c #FF9D15",
"~. c #FF931B",
"^. c #FF9C1C",
"/. c #FFA20D",
"(. c #FFA115",
"). c #FFA11B",
"_. c #FF9523",
"`. c #FF9C23",
"'. c #FF9B2B",
"]. c #EA943B",
"[. c #F19A33",
"{. c #FFA224",
"}. c #FFA32B",
"|. c #FFA82D",
" X c #FFA433",
".X c #FFA835",
"XX c #FFAA3D",
"oX c #9D836A",
"OX c #878079",
"+X c #8C837C",
"@X c #958377",
"#X c #92857C",
"$X c #A9886E",
"%X c #E59744",
"&X c #EA9342",
"*X c #FFAC43",
"=X c #F4AA4E",
"-X c #FFAC4C",
";X c #E8A85D",
":X c #FFAE57",
">X c #FFB258",
",X c #E8A566",
"<X c #FFB562",
"1X c #FEB66E",
"2X c #FFB96C",
"3X c #E4AB74",
"4X c #F0AF71",
"5X c #8E8680",
"6X c #8F8883",
"7X c #918781",
"8X c #938A84",
"9X c #958E89",
"0X c #9A8E88",
"qX c #97908B",
"wX c #9A928D",
"eX c #9C9591",
"rX c #9F9994",
"tX c #A19A95",
"yX c #A49E9A",
"uX c #A7A09C",
"iX c #C9A482",
"pX c #CFCBC7",
/* pixels */
"t t t q w t w w q t n 9X#Xb x d d d d s s s s s t t t d +XrX+Xs t t t t t t t t t t t t s d w s d d d s x +XA.f s s q w ",
"t t t q w w w w q t n wX5Xv d d d d s s s s w t t t t s A.eX5Xj t w q t t t w t t t s y w w w t d y y d v +XA.j w s w w ",
"t t w w w w w q q w B.wX5Xb d j d d s s t t t t t t t t y Z.5Xj t t q t t t q t t t t t s s w s s d w s c +XV.j w q w w ",
"t q q w w w q q w j +XeX+Xb d d s d t s t t t t t t w > X : z c u t t t t t t t t w w t y w s w w w s d n 5XV.x s q q w ",
"w w q w w w w g l B.qXtX+Xn k j s s s s t t t t q > 3 $ G 2 . 5Xn t t t t t q t t w s q q w s w t t t s b +XZ.j w w w w ",
"c r s t a g c n.+XqXtXyXeX+Xc k g d s t t t s q : X * P H.4 - rX+Xn t t w t q t w w w w w w w q t w t s b +XB.d g w w w ",
"pXn.x b n.A.#X9XwXwXtXyXyXeX#XB.c g t t w t s y   = 1.t.2.G : yXtX5Xc d t w t t t y w q y s w s t q t t b +XB.d w w w s ",
"7XA.A.+X7X9X7X+XS.S.7XtXyXeXwX8XA.c s t s j x 7 , 1.6.8.3.D , tXyXtX7Xb d t q q w q w w s w q w t t w s n.7XA.j w d k b ",
"8X9X7X+XOXm b b v b OXwXqXV.+X#X6XM b z M M M   G 2.{ ) } E * u rXtXtX5XM x u q w q w q q w q q q t t d M 9XA.b c n M 5X",
"+XOXn.n x x x v x v m 8X8Xc l n.6X9X5XZ.5XqX9X9 G 5.) _ { 3.N ; B.7X9XeX6XB.n u w q w w q q w q w s x M V.8XOXA.A.6X7X6X",
"v l v v x x x v x x v #X9Xb g g n 5XqXeXeX6XB.j % <.| ) ) } D + 0 6 7 z 9X9XA.n k w w w w w w d x M A.+X8XeX9X6X8X+XM n ",
"v v v k k x x k v x v OX0Xb s g d M eXeX5XM z d 6 Z 6.{ ) ' I , 9 < 1   y 8X9X5Xn.k w p d k b m A.5X9XrXrXqX+XA.m b x x ",
"l v x k v v v x x x x m.8Xn.g w d M eX9Xn z x x z 5 F 7.7.3.J X & J 1.* O 8 5XwX8Xm.b m m OX+X8X9XwXtXrX5XC.m v x k k x ",
"x k x v k k k x x x v m 8Xm.g p d A.eXOXx x x d j 9 @ 1.y.1.V : o Q t.,.V + . d wXwX8X8XqX8X5X+XV.C.9X9XB.c k k k k k f ",
"v x x v k x v v k v v m #XOXg p x 5X9Xn x z d x j j e U T G i 8 # ` ] 6.<.J * + . M tXeX+Xm v k j x 8XOXn k k k k k f d ",
"v x f f f k x x k k k b +X+Xf p b 9XA.9 u z x d x x u 3 i u x 8 # ` / { 7.y.1.V o O B.rX+Xv k k k m 8XA.v k k l k k k k ",
"v v k k f v f v x k k v OX+Xk d A.9Xv.s.p.d x z k t 2 6 j z j 8 N ' ) ) ) { } 2.P $ O V.+Xn k k f OX#X+Xv v f v f v k k ",
"f f v k v f v f k k k v V.5Xb l 5X9Xp.H.f.h k 0 < T f.G u j 8 $ S ) ^ ) ~ ) { { ' K $ b.eXB.k k f OX#X+Xv f v f f k k k ",
"k f v k f v v v v v v k m.7Xm.n 0X7Xv.c.H.s.h V I 6.<.V O X o B ` ) ^ ^ ^ ^ ^ ^ ) 3.C v.eXOXx k v OX#X+Xb f k f v f f k ",
"f v f f v k f v k k v v m 5XOXOX9XZ.z j.j.l i P 5.} 8.F @ # A W { ^ ^ ^ ^ ^ ^ ^ ^ } I j.8X7Xb k f v +XOXb f f x f k x f ",
"v f v v k k v f v v v k m 6X8X9X9XB.x u x u L 2.} ) { ' W ` ! ) / ~ ~ ^ ^ ^ ^ ^ ^ | 1.j.S.0XA.x v OX@XOXx f f x f f f f ",
"f v v f k k k v k k x l m #XrXrX8Xn x d z j T 6.) ^ ^ ) ) ) ~ ~ ^ ^ ^ ^ ^ ^ ^ ^ ^ { 1.j.n 8X5Xm v OX@Xb x f f f f v v f ",
"f k f v k f f k k k k x n.#XtXtX7Xn.x x j i 1.| ~ ^ ^ ~ ~ ^ ^ ~ ^ ^ ^ ^ ^ ^ ^ ^ ^ | I i j B.9XA.m +X+Xm f f f f f f f v ",
"v k k f k k k k k k k x OX#XtXtX8X+Xn.c h Z t.{ ^ ^ ~ ~ ^ / ~ ~ / ^ / / ..^ ~ ^ / 7.P e d c 7X8XV.#X+Xv f x f f f f f f ",
"v f k k k k k k l k v m.#XeXtXtXwX+X+XB.l K 4.^ ^ ~ ^ ^ ~ ^ ^ ^ ^ ^ / ..../ ^ ~ _ r.a.s f v +XqXOX8XOXv f f f f x f f f ",
"v f k f f l f v l b V.7XwXwX#X+X9XqX5XOXb.F ] ^ ^ ^ ^ ~ ^ ^ ^ ^ / / ..;.../ ~ ^ _ Q i.s s v #XqXeXeX+Xb v f f f k f f x ",
"f k k f f f f z.n.V.7X0X8XOXn l b C.8X#XC.K ( ^ ^ ^ ^ ^ ^ ^ ^ ^ ^ / +.>.o.^ ^ / [ E i.t f V.8X8XeXyXqXOXm m m v f f k z ",
"f k v k v f k OX+X8X8XC.V.b g g g h b +XD.E ( ~ ^ ^ / ^ ^ ^ ^ ^ / / ;.:.+./ ^ / { D e d b +X8X#XrXtXtXtXqX+XOXOXM m z z ",
"m m m v z.OXOXoXwX0XM.n.l j g g k g g c M.E ( ^ ^ / ^ / ^ ^ ~ ^ ..+.;.;.X./ ^ ) *.a.h b OX#X8XqX#X#X#XeXqX#X6X9X6X5XM M ",
"qX#X+XOX+X+X+X+XeX+Xn.g g g u g g r a r L Q / / / _ ^ / ....^ ^ ..$.:.%.X./ ^ / | Y c OX+X9X8XOXm b m #X+Xm v V.9XyXyXeX",
"tXtXyXrXwXwX#X+X9XOXl g g g s g s a w r Z ] ^ ^ / _ _ ..@.......$.%.#.#.X./ ^ ^ { S j.+XqX#Xb.f f a f b OXOXm OXeXuXrXyX",
"+X+X#X#X#XeX#X+X9XA.h g g g r p p s p L E _ ^ ^ ^ / *.=.$.@.%.;.;.%.#.#.@...^ ^ { Q a.7X#Xv p p w p p p v OX+XqXeXwXOXM ",
"v v v v n M eX6XqXM k s s g u u p w r ,.[ / ^ ^ ^ / =.$.@.@.;.:.;.%.#.#.@.@./ / _ 7.Z D.7Xj u w w w p a g V.wXtX8Xn.c j ",
"v f f f k n OXeXrX6Xv s t g u t w w Y } { ^ ^ ~ ^ ..X.%.@.#.#.%.T.P.#.#.#.#.../ ^ { W x.0XM.g w w w w w a n.wXwXm.j d x ",
"v f f v z k z 5XeXqXM z g u u g p r ' { / ^ ~ ^ / ..@.#.#.#.%.;.E.W.P.%.%.%.@...../ } E a.@Xc g q q q a r l 0X8Xn d j k ",
"k k k f k k f M 6XeX9Xn k u t r p Y &./ ~ ^ ^ ^ / X.@.%.#.%.%.:.~._.W.P.#.%.@.@.../ | t.J p.C.h w q q w t n.8X8Xb d x d ",
"f f x x d k k z m.0XqX#Xc g r w a <./ ^ ^ ^ ^ ^ ..@.#.#.#.%.%.:._.`.~.R.P.#.@.#.X.o.{ 4.J.H D.S.j w q w s c 8X5Xc z d d ",
"f k k z k d d k c B.7XqXC.l g u R ' / ^ ^ ^ ^ / ..@.#.#.#.%.$.E._.`.`.~.P.#.@.#.@.;._ ( u.2.d.7Xn g w w w c 9X6Xx d d d ",
"f f f d k d z z k k B.8X8XB.k x.e.^ ^ ^ ^ / / @.#.@.#.@.#.%.%.E._.!.).`.~.P.#.#.%.;.*./ | u.,.D.7Xn g w g b 8X+Xx d d d ",
"k f d k d d d k j j l B.8X8XB.w._ ^ / ^ ^ ..X.@.#.#.#.#.#.%.%.E._.(.).`.`.W.P.#.#.@.$./ / 7.4.T @X+Xb g r n.8X5Xb d d d ",
"d j j f d j f k j j k c +X9X8Xe./ ^ ^ / ..@.#.@.@.#.#.#.#.#.%.W.`.(.(.{.{.`.R.%.@.@.@.../ / | ,.N.+XA.b h m.9X8Xn d d d ",
"d d j g d s j g s j j c n.C.F.' ^ ^ ^ / X.@.#.#.#.#.K.K.K.#.P._.`.(.(.).}.'.W.K.@.@.@.@./ / ) 5.k.B.+XA.n A.qX8Xm x d d ",
"d d s d s j d g d d j x j x G.) ^ ^ / ..@.#.#.#.K.I.Q.I.K.K.L._.`.(.(.).{.}.`.P.@.@.@.@...^ / 6.k.b +X5XA.OXwX9Xn d d d ",
"j d j d g s d s s g j x g j G.{ ^ ^ ..X.#.#.#.K.I.!.~.!.I.L.I.^.).(.(.(.).{.^.P.#.@.@.@.X.^ ~ u.k.v m +X+X#XeX9Xb d s s ",
"d d s s s s d k j g k j j g N.&.^ ^ ..$.#.#.K.Q.^.).^.!.!.Q.^.^.(.(.).).).`.~.#.@.@.@.@.X./ ^ u.k.v v m 5XeXrX8Xc d t t ",
"g d s s s s s g d j k g j j +Xe.^ ^ O.%.#.#.I.^.{.).!.!.!.).).(.!.(.).).`.`.I.K.#.@.@.$.=._ _ t.k.v x v M 9XrX5Xb d d d ",
"f g s s s g s g s j j s s k 8Xy.^ / +.;.%.P.^.{.).).(.!.!.(.).(.(.).(.!.).!.U.K.K.#.%.;.+.{ { <.k.k x x v OXwXqXA.l d t ",
"s s s s s s p s g d s s s v 9X$X&./ +.>.:.R.`.}.).).!.(.Y.Y././.(.).!.).`.~.I.R.W.P.%.>.o.{ r.h.b k v v v m +XwX8XB.z t ",
"f g s s s t s s g s s t s n.wX+Xq._ ..;.:.E.`.}.`.).(.(.(.(./././.(./.{.}.`.~._.~.P.@.>.*.r.w.k.v v v v v v V.9XeX6Xm.x ",
"m.n x j g s s s d s t s h C.qX+Xk.9.O.@.%.W.'.`.^.{.).).(.(.(.(.(.(.).{.}.|.'._.Q.#.#.:.&.q.l.l v v v v v b m.+XeXrX8X+X",
"#X+X+X+XM.n.k b b s t t k +XeX+Xx i. .$.%.T.~.`.{.).).).{.{.{.}.|.|.|.|.}.`.{.^.U.K.K.O.w.l.v l k v v v n m.V.#XrXtXeXqX",
"eXwXqX8X8X8X8X8XB.j t w b qX9XB.g t g.9.-.:.R.^.!.!.).{.}..XXX*X*X*X*XXX}.`.^.!.L.L.K. .h.v l v v v l b n.V.OX9XwX0X9XwX",
"OX+X9XqX8X9X8X9X9XA.c k B.qX5XB.j a g a g.0.T.R.!.!.!.}.XX-X>X<X>X:X-X-X*X X`.~.U.T.0.l.x x b x v b m m.V.OX8X8X+Xn n m ",
"M.l n.B.C.#X8X6X8X8X#X+X9XqX+XB.b c n.n.C.oX&X].[.^.{..X*X>X<X2X2X>X>X>X:X-X=X%X].c.k v b b n b n.m m.m.OX8X0XOXx f d g ",
"pXb d j h c n.S.7X9X9X8XqXwX+X5X+X#X7X8X8X8X@X@X$X%X%X=X;X;X,X1X2X2X4X,X,X,X$XN.b.m.m n B.V.M.n.m.m.OX+X8X#X#Xn f d s s ",
"m j d s s j g c n.A.8XeXtXeX6X5X+X+XA.V.B.n x c v l b M.@X+XoX3X3X3XiX#X@X@XOXV.A.+XOX+X6XwXqX8X8XqXwXrX+XOX+Xb d d s s ",
"g d g s s s w s j c B.9XrX7Xn n x x x x j d z d d d d b 8X9X+X7XwXtXwX9X+XC.B.B.V.V.V.V.A.A.+X8X9X9X8XwX9X7X+Xl d s s d ",
"s s s s s s w t w s l #XeXV.c x j x x d d k f s d s s b 7XeXwXwX8X#XC.n.k k k h g g k g j j k c b m.m.A.7X0X+Xc s s d s ",
"w t w s s t t s s w k +X9Xn.x k d x d t d d d d t j s b 8XrX9XA.b k h d s d s s s s s t s s s g s j k k B.9X+Xj s s s s ",
"s t t t t t t t w w c +X7Xn x k d d d d t d d t t t s c 8XeXS.b s s s s t t s s s s s s s s d s s g g g n.9X+Xx s s s w "
};
